<svg id="rbchus" xmlns="http://www.w3.org/2000/svg" viewBox="0 0 86.16 139"><defs><style>.cls-1{fill:#fff;}.cls-2{fill:#231f20;}.cls-3{fill:#acaeaf;}</style></defs><title>hv_rbchus</title><path class="cls-1" d="M75.25,114.43c-2-.24-4-.71-4-.71a8.6,8.6,0,0,1-3.2,7.59c-3.89,3.14-12.29-11.67-12.29-11.67,5.62-5.88,17.64-6.46,19.75-6.51l.21-7.89a42.16,42.16,0,0,0-17,3.28c-8.72,3.89-6.25,16.1-7.76,19.11S35,80.27,35,80.27c-2.55,1.7.49,19,.49,19s2.13,16.55,18.77,35.47c6.93,7.87,11.8,10.26,19,9.34l1.34-5.2Z" transform="translate(-31.92 -5.5)"/><path class="cls-1" d="M79.28,5.84A50.73,50.73,0,0,0,47.9,12.17c-2.67,1.61-18.11,12.09-15.73,41.67,1.79,22.15,3,21.52,3,21.52C30.84,36.75,39,34.74,45.85,24.25c9.87-15.13,21.49-4,21.49-4,4.7,3.09,3.19,3.22,10.25,2.56Z" transform="translate(-31.92 -5.5)"/><path class="cls-2" d="M75.18,117l-3,27.18c.73.13,1.49.26,2.26.36Z" transform="translate(-31.92 -5.5)"/><path class="cls-2" d="M74.66,116.94l1.56,27.31c-.73.09-1.49.18-2.27.24Z" transform="translate(-31.92 -5.5)"/><path class="cls-1" d="M72.11,114.25c2-.13,4-.48,4-.48a18.46,18.46,0,0,0,2.8,7.75c2.74,4.21,12.87-11,12.87-11-5.31-6.18-17.28-7.43-19.39-7.6l1.19-7.69a37.63,37.63,0,0,1,15.85,4c8.5,4.37,6.09,15.1,7.45,18.19S114,82.39,114,82.39c2.46,1.84-1.46,18.94-1.46,18.94s-2.42,15-20.56,34.37c-7.16,7.63-12.3,9.59-19.43,8.27l-1.08-5.26Z" transform="translate(-31.92 -5.5)"/><path class="cls-1" d="M74.15,5.61a46.34,46.34,0,0,1,29.7,8c2.59,1.75,17.48,13.08,13.58,42.48-2.91,22-4.11,21.33-4.11,21.33,6.31-38.32-1.72-40.78-8-51.64C96.21,10.17,84,20.62,84,20.62c-4.85,2.82-3.35,3-10.36,2Z" transform="translate(-31.92 -5.5)"/><path class="cls-1" d="M66.39,56.31a44,44,0,0,1-12-1.25c-5.27-1.5-12.22,7.19-12.22,7.19s1.26-5.12,3.87-8C49.87,50.14,55.84,52,55.84,52S61.84,55.6,66.39,56.31Z" transform="translate(-31.92 -5.5)"/><path class="cls-1" d="M86,57.72a44,44,0,0,0,12-1.43c5.25-1.59,12.37,7,12.37,7s-1.36-5.1-4-7.89c-3.93-4.1-9.86-2.11-9.86-2.11S90.58,56.94,86,57.72Z" transform="translate(-31.92 -5.5)"/><path class="cls-3" d="M73.67,124.06l-2.18-.12c.25,1.19-1.52,2.42-2.7,2.57-3.13.4-9.69-8.13-9.69-8.13a22,22,0,0,0-4.55,7.37c-.7,2.36,1.45,7.08,4.57,9.54a40.48,40.48,0,0,0,7.25,4.32l6.5,2.49.36-.84Z" transform="translate(-31.92 -5.5)"/><path class="cls-3" d="M73,124H75.2c-.3,1.18,1.4,2.51,2.57,2.72,3.11.58,10.09-7.58,10.09-7.58A22.24,22.24,0,0,1,92,126.79c.58,2.4-1.81,7-5,9.28a39.35,39.35,0,0,1-7.46,3.9l-6.65,2.13-.29-.86Z" transform="translate(-31.92 -5.5)"/><path class="cls-1" d="M73.3,127.42l-1.6-.09c.18.88-1.11,1.78-2,1.89-2.3.29-9.14-6-9.14-6a6.32,6.32,0,0,0-1.31,5.46c.42,1.75,1.07,5.19,3.36,7a29.12,29.12,0,0,0,5.31,3.17l4.77,1.82L73,140Z" transform="translate(-31.92 -5.5)"/><path class="cls-1" d="M72.82,127.4h1.6c-.22.87,1,1.84,1.89,2,2.28.42,9-5.51,9-5.51a8.5,8.5,0,0,1,1.44,5.54,10.14,10.14,0,0,1-3.71,6.8,29,29,0,0,1-5.47,2.87l-4.88,1.55L72.5,140Z" transform="translate(-31.92 -5.5)"/></svg>