<svg id="Layer_1" data-name="Layer 1" xmlns="http://www.w3.org/2000/svg" viewBox="0 0 154.22 120.04"><defs><style>.cls-1{fill:#010101;}</style></defs><title>icon</title><rect class="cls-1" x="341.75" y="335.79" width="14" height="15.01" transform="translate(467.03 351.94) rotate(-179.82)"/><rect class="cls-1" x="327.72" y="350.75" width="14" height="15.01" transform="translate(438.91 381.81) rotate(-179.82)"/><rect class="cls-1" x="341.67" y="365.8" width="14" height="15.01" transform="translate(466.76 411.96) rotate(-179.82)"/><rect class="cls-1" x="355.62" y="380.85" width="14" height="15.01" transform="translate(494.62 442.1) rotate(-179.82)"/><rect class="cls-1" x="369.58" y="395.9" width="14" height="15.01" transform="translate(522.48 472.25) rotate(-179.82)"/><rect class="cls-1" x="369.54" y="410.91" width="14" height="15.01" transform="translate(522.35 502.26) rotate(-179.82)"/><rect class="cls-1" x="369.49" y="425.91" width="14" height="15.01" transform="translate(522.22 532.27) rotate(-179.82)"/><rect class="cls-1" x="327.68" y="365.76" width="14" height="15.01" transform="translate(438.77 411.82) rotate(-179.82)"/><rect class="cls-1" x="341.63" y="380.81" width="14" height="15.01" transform="translate(466.63 441.97) rotate(-179.82)"/><rect class="cls-1" x="355.58" y="395.86" width="14" height="15.01" transform="translate(494.49 472.11) rotate(-179.82)"/><rect class="cls-1" x="341.59" y="395.81" width="14" height="15.01" transform="translate(466.5 471.98) rotate(-179.82)"/><rect class="cls-1" x="327.59" y="395.77" width="14" height="15.01" transform="translate(438.51 471.84) rotate(-179.82)"/><rect class="cls-1" x="313.68" y="365.71" width="14" height="15.01" transform="translate(410.78 411.69) rotate(-179.82)"/><rect class="cls-1" x="313.64" y="380.72" width="14" height="15.01" transform="translate(410.65 441.7) rotate(-179.82)"/><rect class="cls-1" x="313.6" y="395.72" width="14" height="15.01" transform="translate(410.52 471.71) rotate(-179.82)"/><rect class="cls-1" x="313.47" y="440.74" width="14" height="15.01" transform="translate(410.12 561.74) rotate(-179.82)"/><rect class="cls-1" x="327.47" y="440.78" width="14" height="15.01" transform="translate(438.11 561.87) rotate(-179.82)"/><rect class="cls-1" x="341.5" y="425.82" width="14" height="15.01" transform="translate(466.24 532) rotate(-179.82)"/><rect class="cls-1" x="341.55" y="410.82" width="14" height="15.01" transform="translate(466.37 501.99) rotate(-179.82)"/><rect class="cls-1" x="327.55" y="410.77" width="14" height="15.01" transform="translate(438.38 501.85) rotate(-179.82)"/><rect class="cls-1" x="313.56" y="410.73" width="14" height="15.01" transform="translate(410.39 501.72) rotate(-179.82)"/><rect class="cls-1" x="299.69" y="365.67" width="14" height="15.01" transform="translate(382.79 411.55) rotate(-179.82)"/><rect class="cls-1" x="299.55" y="380.67" width="14" height="15.01" transform="translate(382.48 441.56) rotate(-179.82)"/><rect class="cls-1" x="299.6" y="395.68" width="14" height="15.01" transform="translate(382.53 471.57) rotate(-179.82)"/><rect class="cls-1" x="299.47" y="410.68" width="14" height="15.01" transform="translate(382.22 501.58) rotate(-179.82)"/><rect class="cls-1" x="27.99" width="14" height="15.01"/><rect class="cls-1" x="41.99" y="15.01" width="14" height="15.01"/><rect class="cls-1" x="27.99" y="30.01" width="14" height="15.01"/><rect class="cls-1" x="14" y="45.02" width="14" height="15.01"/><rect class="cls-1" y="60.02" width="14" height="15.01"/><rect class="cls-1" y="75.03" width="14" height="15.01"/><rect class="cls-1" y="90.03" width="14" height="15.01"/><rect class="cls-1" x="41.99" y="30.01" width="14" height="15.01"/><rect class="cls-1" x="27.99" y="45.02" width="14" height="15.01"/><rect class="cls-1" x="14" y="60.02" width="14" height="15.01"/><rect class="cls-1" x="27.99" y="60.02" width="14" height="15.01"/><rect class="cls-1" x="41.99" y="60.02" width="14" height="15.01"/><rect class="cls-1" x="55.98" y="30.01" width="14" height="15.01"/><rect class="cls-1" x="55.98" y="45.02" width="14" height="15.01"/><rect class="cls-1" x="55.98" y="60.02" width="14" height="15.01"/><rect class="cls-1" x="55.98" y="105.04" width="14" height="15.01"/><rect class="cls-1" x="41.99" y="105.04" width="14" height="15.01"/><rect class="cls-1" x="27.99" y="90.03" width="14" height="15.01"/><rect class="cls-1" x="27.99" y="75.03" width="14" height="15.01"/><rect class="cls-1" x="41.99" y="75.03" width="14" height="15.01"/><rect class="cls-1" x="55.98" y="75.03" width="14" height="15.01"/><rect class="cls-1" x="69.98" y="30.01" width="14" height="15.01"/><rect class="cls-1" x="70.07" y="45.02" width="14" height="15.01"/><rect class="cls-1" x="69.98" y="60.02" width="14" height="15.01"/><rect class="cls-1" x="70.07" y="75.03" width="14" height="15.01"/></svg>